<mxfile host="app.diagrams.net" agent="Mozilla/5.0 (Windows NT 10.0; Win64; x64) AppleWebKit/537.36 (KHTML, like Gecko) Chrome/130.0.0.0 Safari/537.36 Edg/130.0.0.0" version="24.8.8">
  <diagram name="Page-1" id="58cdce13-f638-feb5-8d6f-7d28b1aa9fa0">
    <mxGraphModel grid="1" page="1" gridSize="10" guides="1" tooltips="1" connect="1" arrows="1" fold="1" pageScale="1" pageWidth="1100" pageHeight="850" background="none" math="0" shadow="0">
      <root>
        <mxCell id="0" />
        <mxCell id="1" parent="0" />
        <mxCell id="2a3bc250acf0617d-8" value="State Diagramm for Animation" style="shape=umlFrame;whiteSpace=wrap;html=1;rounded=1;shadow=0;comic=0;labelBackgroundColor=none;strokeWidth=1;fontFamily=Verdana;fontSize=12;align=center;width=200;height=50;" vertex="1" parent="1">
          <mxGeometry x="50" y="105" width="1020" height="690" as="geometry" />
        </mxCell>
        <mxCell id="382b91b5511bd0f7-1" value="" style="ellipse;html=1;shape=startState;rounded=1;shadow=0;comic=0;labelBackgroundColor=none;fontFamily=Verdana;fontSize=12;align=center;direction=south;fillColor=#000000;strokeColor=#b46504;" vertex="1" parent="1">
          <mxGeometry x="365" y="125" width="30" height="30" as="geometry" />
        </mxCell>
        <mxCell id="55TJ_ZkYL5hM4LRfqOBl-16" style="edgeStyle=orthogonalEdgeStyle;rounded=0;orthogonalLoop=1;jettySize=auto;html=1;exitX=0;exitY=0.5;exitDx=0;exitDy=0;" edge="1" parent="1" source="382b91b5511bd0f7-7" target="55TJ_ZkYL5hM4LRfqOBl-15">
          <mxGeometry relative="1" as="geometry">
            <mxPoint x="455" y="345" as="sourcePoint" />
          </mxGeometry>
        </mxCell>
        <mxCell id="4EAktQYD83jiBUtCIHTl-13" style="edgeStyle=orthogonalEdgeStyle;rounded=0;orthogonalLoop=1;jettySize=auto;html=1;exitX=1;exitY=0.5;exitDx=0;exitDy=0;" edge="1" parent="1" source="382b91b5511bd0f7-7" target="4EAktQYD83jiBUtCIHTl-11">
          <mxGeometry relative="1" as="geometry" />
        </mxCell>
        <mxCell id="382b91b5511bd0f7-7" value="angle alpha state checked" style="rounded=1;whiteSpace=wrap;html=1;arcSize=24;shadow=0;comic=0;labelBackgroundColor=none;fontFamily=Verdana;fontSize=12;align=center;" vertex="1" parent="1">
          <mxGeometry x="370" y="295" width="170" height="40" as="geometry" />
        </mxCell>
        <mxCell id="382b91b5511bd0f7-9" value="symmetric behavior relativ to the right part&lt;div&gt;......&lt;/div&gt;" style="rounded=1;whiteSpace=wrap;html=1;arcSize=24;shadow=0;comic=0;labelBackgroundColor=none;fontFamily=Verdana;fontSize=12;align=center;" vertex="1" parent="1">
          <mxGeometry x="58.75" y="255" width="270" height="40" as="geometry" />
        </mxCell>
        <mxCell id="2a3bc250acf0617d-9" style="edgeStyle=orthogonalEdgeStyle;html=1;labelBackgroundColor=none;endArrow=open;endSize=8;fontFamily=Verdana;fontSize=12;align=left;" edge="1" parent="1" source="382b91b5511bd0f7-1" target="55TJ_ZkYL5hM4LRfqOBl-13">
          <mxGeometry relative="1" as="geometry">
            <mxPoint x="380" y="205" as="targetPoint" />
          </mxGeometry>
        </mxCell>
        <mxCell id="55TJ_ZkYL5hM4LRfqOBl-4" value="&lt;font style=&quot;font-size: 13px;&quot;&gt;[direction == 1]&lt;/font&gt;&lt;div&gt;&lt;font style=&quot;font-size: 13px;&quot;&gt;/decrease alpha&lt;/font&gt;&lt;/div&gt;" style="text;html=1;align=center;verticalAlign=middle;whiteSpace=wrap;rounded=0;" vertex="1" parent="1">
          <mxGeometry x="180" y="195" width="170" height="30" as="geometry" />
        </mxCell>
        <mxCell id="55TJ_ZkYL5hM4LRfqOBl-5" value="&lt;font style=&quot;font-size: 13px;&quot;&gt;[direction == 0]&lt;/font&gt;&lt;div&gt;&lt;font style=&quot;font-size: 13px;&quot;&gt;/increases alpha&lt;/font&gt;&lt;/div&gt;" style="text;html=1;align=center;verticalAlign=middle;whiteSpace=wrap;rounded=0;" vertex="1" parent="1">
          <mxGeometry x="420" y="195" width="170" height="30" as="geometry" />
        </mxCell>
        <mxCell id="55TJ_ZkYL5hM4LRfqOBl-12" style="edgeStyle=orthogonalEdgeStyle;rounded=0;orthogonalLoop=1;jettySize=auto;html=1;exitX=1;exitY=0.5;exitDx=0;exitDy=0;" edge="1" parent="1" source="55TJ_ZkYL5hM4LRfqOBl-13" target="382b91b5511bd0f7-7">
          <mxGeometry relative="1" as="geometry">
            <mxPoint x="440" y="245" as="sourcePoint" />
          </mxGeometry>
        </mxCell>
        <mxCell id="4EAktQYD83jiBUtCIHTl-7" style="edgeStyle=orthogonalEdgeStyle;rounded=0;orthogonalLoop=1;jettySize=auto;html=1;exitX=0;exitY=0.5;exitDx=0;exitDy=0;" edge="1" parent="1" source="55TJ_ZkYL5hM4LRfqOBl-13" target="382b91b5511bd0f7-9">
          <mxGeometry relative="1" as="geometry" />
        </mxCell>
        <mxCell id="55TJ_ZkYL5hM4LRfqOBl-13" value="&lt;span style=&quot;font-family: Helvetica;&quot;&gt;C_mode = C2&lt;/span&gt;" style="rounded=1;whiteSpace=wrap;html=1;arcSize=24;shadow=0;comic=0;labelBackgroundColor=none;fontFamily=Verdana;fontSize=12;align=center;" vertex="1" parent="1">
          <mxGeometry x="328.75" y="205" width="102.5" height="40" as="geometry" />
        </mxCell>
        <mxCell id="55TJ_ZkYL5hM4LRfqOBl-14" value="Start" style="text;html=1;align=center;verticalAlign=middle;whiteSpace=wrap;rounded=0;" vertex="1" parent="1">
          <mxGeometry x="385" y="125" width="60" height="30" as="geometry" />
        </mxCell>
        <mxCell id="4EAktQYD83jiBUtCIHTl-2" style="edgeStyle=orthogonalEdgeStyle;rounded=0;orthogonalLoop=1;jettySize=auto;html=1;exitX=0.5;exitY=1;exitDx=0;exitDy=0;entryX=0.5;entryY=0;entryDx=0;entryDy=0;" edge="1" parent="1" source="55TJ_ZkYL5hM4LRfqOBl-15" target="4EAktQYD83jiBUtCIHTl-1">
          <mxGeometry relative="1" as="geometry" />
        </mxCell>
        <mxCell id="55TJ_ZkYL5hM4LRfqOBl-15" value="switch state of last step checked" style="rounded=1;whiteSpace=wrap;html=1;arcSize=24;shadow=0;comic=0;labelBackgroundColor=none;fontFamily=Verdana;fontSize=12;align=center;" vertex="1" parent="1">
          <mxGeometry x="215" y="405" width="220" height="40" as="geometry" />
        </mxCell>
        <mxCell id="55TJ_ZkYL5hM4LRfqOBl-17" value="&lt;font style=&quot;font-size: 13px;&quot;&gt;[&lt;span style=&quot;font-family: Verdana;&quot;&gt;alpha exceeds upper limit&amp;nbsp;&lt;/span&gt;&lt;span style=&quot;font-family: Verdana; background-color: initial;&quot;&gt;and alpha is limited == True&lt;/span&gt;]&lt;/font&gt;&lt;div&gt;&lt;font style=&quot;font-size: 13px;&quot;&gt;&amp;nbsp; &amp;nbsp; &amp;nbsp; &amp;nbsp; &amp;nbsp;/switch direction&lt;/font&gt;&lt;/div&gt;" style="text;html=1;align=center;verticalAlign=middle;whiteSpace=wrap;rounded=0;" vertex="1" parent="1">
          <mxGeometry x="320" y="340" width="380" height="30" as="geometry" />
        </mxCell>
        <mxCell id="Eta0v8zq2pt3wXClCBmr-24" style="edgeStyle=orthogonalEdgeStyle;rounded=0;orthogonalLoop=1;jettySize=auto;html=1;exitX=0.5;exitY=1;exitDx=0;exitDy=0;entryX=0;entryY=0.5;entryDx=0;entryDy=0;" edge="1" parent="1" source="4EAktQYD83jiBUtCIHTl-1" target="Eta0v8zq2pt3wXClCBmr-27">
          <mxGeometry relative="1" as="geometry" />
        </mxCell>
        <mxCell id="4EAktQYD83jiBUtCIHTl-1" value="C switched" style="rounded=1;whiteSpace=wrap;html=1;arcSize=24;shadow=0;comic=0;labelBackgroundColor=none;fontFamily=Verdana;fontSize=12;align=center;" vertex="1" parent="1">
          <mxGeometry x="265" y="520" width="120" height="30" as="geometry" />
        </mxCell>
        <mxCell id="4EAktQYD83jiBUtCIHTl-3" value="&lt;font style=&quot;font-size: 13px;&quot;&gt;[C2_C1_switched_last_time == False]&lt;/font&gt;&lt;div&gt;&lt;font style=&quot;font-size: 13px;&quot;&gt;/switch_C2_C1()&lt;/font&gt;&lt;/div&gt;" style="text;html=1;align=center;verticalAlign=middle;whiteSpace=wrap;rounded=0;" vertex="1" parent="1">
          <mxGeometry x="95" y="465" width="230" height="35" as="geometry" />
        </mxCell>
        <mxCell id="Eta0v8zq2pt3wXClCBmr-5" style="edgeStyle=orthogonalEdgeStyle;rounded=0;orthogonalLoop=1;jettySize=auto;html=1;exitX=0.5;exitY=1;exitDx=0;exitDy=0;" edge="1" parent="1" source="4EAktQYD83jiBUtCIHTl-11" target="Eta0v8zq2pt3wXClCBmr-4">
          <mxGeometry relative="1" as="geometry" />
        </mxCell>
        <mxCell id="Eta0v8zq2pt3wXClCBmr-11" style="edgeStyle=orthogonalEdgeStyle;rounded=0;orthogonalLoop=1;jettySize=auto;html=1;exitX=0;exitY=0.5;exitDx=0;exitDy=0;entryX=1;entryY=0.5;entryDx=0;entryDy=0;" edge="1" parent="1" source="4EAktQYD83jiBUtCIHTl-11" target="55TJ_ZkYL5hM4LRfqOBl-15">
          <mxGeometry relative="1" as="geometry" />
        </mxCell>
        <mxCell id="4EAktQYD83jiBUtCIHTl-11" value="necessity of switch by 0/360 degrees checked" style="rounded=1;whiteSpace=wrap;html=1;arcSize=24;shadow=0;comic=0;labelBackgroundColor=none;fontFamily=Verdana;fontSize=12;align=center;" vertex="1" parent="1">
          <mxGeometry x="750" y="405" width="300" height="40" as="geometry" />
        </mxCell>
        <mxCell id="4EAktQYD83jiBUtCIHTl-15" style="edgeStyle=orthogonalEdgeStyle;rounded=0;orthogonalLoop=1;jettySize=auto;html=1;exitX=1;exitY=0.5;exitDx=0;exitDy=0;" edge="1" parent="1" source="4EAktQYD83jiBUtCIHTl-14" target="2a3bc250acf0617d-8">
          <mxGeometry relative="1" as="geometry" />
        </mxCell>
        <mxCell id="4EAktQYD83jiBUtCIHTl-14" value="" style="ellipse;html=1;shape=startState;rounded=1;shadow=0;comic=0;labelBackgroundColor=none;fontFamily=Verdana;fontSize=12;align=center;direction=south;fillColor=#000000;strokeColor=#000000;" vertex="1" parent="1">
          <mxGeometry x="545" y="50" width="30" height="30" as="geometry" />
        </mxCell>
        <mxCell id="Eta0v8zq2pt3wXClCBmr-1" value="&lt;font style=&quot;font-size: 13px;&quot;&gt;&lt;span style=&quot;font-family: Verdana;&quot;&gt;[alpha exceeds upper limit&amp;nbsp;&lt;/span&gt;&lt;span style=&quot;background-color: initial; font-family: Verdana;&quot;&gt;and alpha is limited == False&lt;/span&gt;]&lt;/font&gt;" style="text;html=1;align=center;verticalAlign=middle;whiteSpace=wrap;rounded=0;" vertex="1" parent="1">
          <mxGeometry x="540" y="285" width="380" height="30" as="geometry" />
        </mxCell>
        <mxCell id="Eta0v8zq2pt3wXClCBmr-9" style="edgeStyle=orthogonalEdgeStyle;rounded=0;orthogonalLoop=1;jettySize=auto;html=1;exitX=0.5;exitY=1;exitDx=0;exitDy=0;entryX=0.5;entryY=0;entryDx=0;entryDy=0;" edge="1" parent="1" source="Eta0v8zq2pt3wXClCBmr-4" target="Eta0v8zq2pt3wXClCBmr-8">
          <mxGeometry relative="1" as="geometry" />
        </mxCell>
        <mxCell id="Eta0v8zq2pt3wXClCBmr-13" style="edgeStyle=orthogonalEdgeStyle;rounded=0;orthogonalLoop=1;jettySize=auto;html=1;exitX=0;exitY=0.5;exitDx=0;exitDy=0;" edge="1" parent="1" source="Eta0v8zq2pt3wXClCBmr-4">
          <mxGeometry relative="1" as="geometry">
            <mxPoint x="440" y="425" as="targetPoint" />
            <Array as="points">
              <mxPoint x="441" y="520" />
              <mxPoint x="441" y="425" />
            </Array>
          </mxGeometry>
        </mxCell>
        <mxCell id="Eta0v8zq2pt3wXClCBmr-4" value="necessity of switch by 180 degrees checked" style="rounded=1;whiteSpace=wrap;html=1;arcSize=24;shadow=0;comic=0;labelBackgroundColor=none;fontFamily=Verdana;fontSize=12;align=center;" vertex="1" parent="1">
          <mxGeometry x="750" y="500" width="300" height="40" as="geometry" />
        </mxCell>
        <mxCell id="Eta0v8zq2pt3wXClCBmr-6" value="&lt;font style=&quot;font-size: 13px;&quot;&gt;[&lt;span style=&quot;font-family: Verdana;&quot;&gt;necessity ==&amp;nbsp;&lt;/span&gt;False]&lt;/font&gt;" style="text;html=1;align=center;verticalAlign=middle;whiteSpace=wrap;rounded=0;" vertex="1" parent="1">
          <mxGeometry x="920" y="455" width="140" height="30" as="geometry" />
        </mxCell>
        <mxCell id="Eta0v8zq2pt3wXClCBmr-21" style="edgeStyle=orthogonalEdgeStyle;rounded=0;orthogonalLoop=1;jettySize=auto;html=1;exitX=0;exitY=0.5;exitDx=0;exitDy=0;entryX=1;entryY=0.5;entryDx=0;entryDy=0;" edge="1" parent="1" source="Eta0v8zq2pt3wXClCBmr-8" target="55TJ_ZkYL5hM4LRfqOBl-15">
          <mxGeometry relative="1" as="geometry">
            <Array as="points">
              <mxPoint x="440" y="605" />
              <mxPoint x="440" y="425" />
            </Array>
          </mxGeometry>
        </mxCell>
        <mxCell id="Eta0v8zq2pt3wXClCBmr-22" style="edgeStyle=orthogonalEdgeStyle;rounded=0;orthogonalLoop=1;jettySize=auto;html=1;exitX=0.5;exitY=1;exitDx=0;exitDy=0;entryX=1;entryY=0.5;entryDx=0;entryDy=0;" edge="1" parent="1" source="Eta0v8zq2pt3wXClCBmr-8" target="Eta0v8zq2pt3wXClCBmr-27">
          <mxGeometry relative="1" as="geometry" />
        </mxCell>
        <mxCell id="Eta0v8zq2pt3wXClCBmr-8" value="alpha range and limit state checked" style="rounded=1;whiteSpace=wrap;html=1;arcSize=24;shadow=0;comic=0;labelBackgroundColor=none;fontFamily=Verdana;fontSize=12;align=center;" vertex="1" parent="1">
          <mxGeometry x="750" y="585" width="300" height="40" as="geometry" />
        </mxCell>
        <mxCell id="Eta0v8zq2pt3wXClCBmr-10" value="&lt;font style=&quot;font-size: 13px;&quot;&gt;[&lt;span style=&quot;font-family: Verdana;&quot;&gt;necessity ==&amp;nbsp;&lt;/span&gt;False]&lt;/font&gt;" style="text;html=1;align=center;verticalAlign=middle;whiteSpace=wrap;rounded=0;" vertex="1" parent="1">
          <mxGeometry x="920" y="550" width="140" height="30" as="geometry" />
        </mxCell>
        <mxCell id="Eta0v8zq2pt3wXClCBmr-16" value="" style="ellipse;html=1;shape=endState;rounded=1;shadow=0;comic=0;labelBackgroundColor=none;fontFamily=Verdana;fontSize=12;align=center;" vertex="1" parent="1">
          <mxGeometry x="515" y="745" width="30" height="30" as="geometry" />
        </mxCell>
        <mxCell id="Eta0v8zq2pt3wXClCBmr-20" value="&lt;font style=&quot;font-size: 13px;&quot;&gt;[not alpha_limited and alpha &amp;gt;=360 == True]&lt;/font&gt;&lt;div&gt;&lt;font style=&quot;font-size: 13px;&quot;&gt;/alpha = alpha - 360&lt;/font&gt;&lt;/div&gt;" style="text;html=1;align=center;verticalAlign=middle;whiteSpace=wrap;rounded=0;" vertex="1" parent="1">
          <mxGeometry x="452.5" y="575" width="275" height="30" as="geometry" />
        </mxCell>
        <mxCell id="Eta0v8zq2pt3wXClCBmr-23" value="&lt;font style=&quot;font-size: 13px;&quot;&gt;[not alpha_limited and alpha &amp;gt;=360 == False]&lt;/font&gt;" style="text;html=1;align=center;verticalAlign=middle;whiteSpace=wrap;rounded=0;" vertex="1" parent="1">
          <mxGeometry x="630" y="640" width="280" height="30" as="geometry" />
        </mxCell>
        <mxCell id="Eta0v8zq2pt3wXClCBmr-25" value="End" style="text;html=1;align=center;verticalAlign=middle;whiteSpace=wrap;rounded=0;" vertex="1" parent="1">
          <mxGeometry x="500" y="725" width="60" height="30" as="geometry" />
        </mxCell>
        <mxCell id="Eta0v8zq2pt3wXClCBmr-31" style="edgeStyle=orthogonalEdgeStyle;rounded=0;orthogonalLoop=1;jettySize=auto;html=1;exitX=0.25;exitY=1;exitDx=0;exitDy=0;entryX=0;entryY=0.5;entryDx=0;entryDy=0;" edge="1" parent="1" source="Eta0v8zq2pt3wXClCBmr-27" target="Eta0v8zq2pt3wXClCBmr-16">
          <mxGeometry relative="1" as="geometry" />
        </mxCell>
        <mxCell id="Eta0v8zq2pt3wXClCBmr-33" style="edgeStyle=orthogonalEdgeStyle;rounded=0;orthogonalLoop=1;jettySize=auto;html=1;exitX=0.75;exitY=1;exitDx=0;exitDy=0;entryX=1;entryY=0.5;entryDx=0;entryDy=0;" edge="1" parent="1" source="Eta0v8zq2pt3wXClCBmr-27" target="Eta0v8zq2pt3wXClCBmr-16">
          <mxGeometry relative="1" as="geometry">
            <Array as="points">
              <mxPoint x="570" y="760" />
            </Array>
          </mxGeometry>
        </mxCell>
        <mxCell id="Eta0v8zq2pt3wXClCBmr-27" value="update c switch state" style="rounded=1;whiteSpace=wrap;html=1;arcSize=24;shadow=0;comic=0;labelBackgroundColor=none;fontFamily=Verdana;fontSize=12;align=center;" vertex="1" parent="1">
          <mxGeometry x="450" y="655" width="160" height="30" as="geometry" />
        </mxCell>
        <mxCell id="Eta0v8zq2pt3wXClCBmr-30" value="&lt;font style=&quot;font-size: 13px;&quot;&gt;[not switched this time == True]&lt;/font&gt;&lt;div&gt;&lt;font style=&quot;font-size: 13px;&quot;&gt;/C2_C1_switched_last_time = False&lt;/font&gt;&lt;/div&gt;" style="text;html=1;align=center;verticalAlign=middle;whiteSpace=wrap;rounded=0;" vertex="1" parent="1">
          <mxGeometry x="261.25" y="715" width="237.5" height="30" as="geometry" />
        </mxCell>
        <mxCell id="Eta0v8zq2pt3wXClCBmr-34" value="&lt;font style=&quot;font-size: 13px;&quot;&gt;[not switch this time == False]&lt;/font&gt;" style="text;html=1;align=center;verticalAlign=middle;whiteSpace=wrap;rounded=0;" vertex="1" parent="1">
          <mxGeometry x="580" y="715" width="180" height="30" as="geometry" />
        </mxCell>
        <mxCell id="Eta0v8zq2pt3wXClCBmr-35" value="&lt;span style=&quot;font-size: 13px;&quot;&gt;[necessity and&amp;nbsp;&lt;/span&gt;&lt;span style=&quot;background-color: initial;&quot;&gt;&lt;span style=&quot;font-size: 13px;&quot;&gt;α − θ crosses 180 degrees == True]&lt;/span&gt;&lt;/span&gt;" style="text;html=1;align=center;verticalAlign=middle;whiteSpace=wrap;rounded=0;" vertex="1" parent="1">
          <mxGeometry x="445" y="485" width="300" height="35" as="geometry" />
        </mxCell>
        <mxCell id="Eta0v8zq2pt3wXClCBmr-36" value="&lt;span style=&quot;font-size: 13px;&quot;&gt;[necessity and&amp;nbsp;&lt;/span&gt;&lt;span style=&quot;background-color: initial;&quot;&gt;&lt;span style=&quot;font-size: 13px;&quot;&gt;α − θ crosses 0/360 degrees&amp;nbsp;== True]&lt;/span&gt;&lt;/span&gt;" style="text;html=1;align=center;verticalAlign=middle;whiteSpace=wrap;rounded=0;" vertex="1" parent="1">
          <mxGeometry x="440" y="390" width="310" height="35" as="geometry" />
        </mxCell>
      </root>
    </mxGraphModel>
  </diagram>
</mxfile>
